<mxfile host="app.diagrams.net" modified="2024-03-18T10:56:56.695Z" agent="Mozilla/5.0 (Windows NT 10.0; Win64; x64) AppleWebKit/537.36 (KHTML, like Gecko) Chrome/122.0.0.0 Safari/537.36" etag="dbt6nP-PT3XC3Vp8B4YS" version="24.0.7" type="google">
  <diagram id="R2lEEEUBdFMjLlhIrx00" name="Page-1">
    <mxGraphModel dx="2311" dy="759" grid="1" gridSize="10" guides="1" tooltips="1" connect="1" arrows="1" fold="1" page="1" pageScale="1" pageWidth="850" pageHeight="1100" math="0" shadow="0" extFonts="Permanent Marker^https://fonts.googleapis.com/css?family=Permanent+Marker">
      <root>
        <mxCell id="0" />
        <mxCell id="1" parent="0" />
        <mxCell id="DJvpjTa6kjWMiN1_DL-c-1" value="customer" style="rounded=0;whiteSpace=wrap;html=1;" parent="1" vertex="1">
          <mxGeometry x="-258" y="730" width="120" height="60" as="geometry" />
        </mxCell>
        <mxCell id="DJvpjTa6kjWMiN1_DL-c-2" value="&lt;u&gt;customer_id&lt;/u&gt;" style="ellipse;whiteSpace=wrap;html=1;" parent="1" vertex="1">
          <mxGeometry x="-350" y="514" width="110" height="36.5" as="geometry" />
        </mxCell>
        <mxCell id="DJvpjTa6kjWMiN1_DL-c-4" value="email" style="ellipse;whiteSpace=wrap;html=1;" parent="1" vertex="1">
          <mxGeometry x="-415" y="555" width="105" height="40" as="geometry" />
        </mxCell>
        <mxCell id="DJvpjTa6kjWMiN1_DL-c-10" value="orders" style="rhombus;whiteSpace=wrap;html=1;" parent="1" vertex="1">
          <mxGeometry x="-248" y="930" width="100" height="60" as="geometry" />
        </mxCell>
        <mxCell id="sfWffZ3PeyV2pCnH3za--2" value="product_name" style="ellipse;whiteSpace=wrap;html=1;" parent="1" vertex="1">
          <mxGeometry x="-563.75" y="1330" width="113.5" height="50" as="geometry" />
        </mxCell>
        <mxCell id="sfWffZ3PeyV2pCnH3za--4" value="product_price" style="ellipse;whiteSpace=wrap;html=1;" parent="1" vertex="1">
          <mxGeometry x="-605" y="1210" width="98.75" height="45" as="geometry" />
        </mxCell>
        <mxCell id="sfWffZ3PeyV2pCnH3za--6" value="discount_percent" style="ellipse;whiteSpace=wrap;html=1;" parent="1" vertex="1">
          <mxGeometry x="-450.25" y="1320" width="110.25" height="45" as="geometry" />
        </mxCell>
        <mxCell id="sfWffZ3PeyV2pCnH3za--29" value="Customer_ID" style="ellipse;whiteSpace=wrap;html=1;fillColor=#CCFFFF;" parent="1" vertex="1">
          <mxGeometry x="-330" y="1060" width="112" height="52" as="geometry" />
        </mxCell>
        <mxCell id="sfWffZ3PeyV2pCnH3za--30" value="order_time" style="ellipse;whiteSpace=wrap;html=1;" parent="1" vertex="1">
          <mxGeometry x="-667.75" y="997" width="104" height="49" as="geometry" />
        </mxCell>
        <mxCell id="sfWffZ3PeyV2pCnH3za--50" value="transaction" style="rounded=0;whiteSpace=wrap;html=1;" parent="1" vertex="1">
          <mxGeometry x="20" y="930" width="120" height="60" as="geometry" />
        </mxCell>
        <mxCell id="sfWffZ3PeyV2pCnH3za--51" value="transaction_id" style="ellipse;whiteSpace=wrap;html=1;fontStyle=4" parent="1" vertex="1">
          <mxGeometry x="170" y="850" width="102" height="42" as="geometry" />
        </mxCell>
        <mxCell id="sfWffZ3PeyV2pCnH3za--52" value="Order_ID" style="ellipse;whiteSpace=wrap;html=1;fillColor=#CCFFFF;" parent="1" vertex="1">
          <mxGeometry x="79.89" y="1013" width="107" height="35" as="geometry" />
        </mxCell>
        <mxCell id="sfWffZ3PeyV2pCnH3za--53" value="Customer_ID" style="ellipse;whiteSpace=wrap;html=1;fillColor=#CCFFFF;" parent="1" vertex="1">
          <mxGeometry x="20.000000000000014" y="1049" width="97" height="37" as="geometry" />
        </mxCell>
        <mxCell id="sfWffZ3PeyV2pCnH3za--54" value="transaction_time" style="ellipse;whiteSpace=wrap;html=1;" parent="1" vertex="1">
          <mxGeometry x="-148" y="890" width="108" height="40" as="geometry" />
        </mxCell>
        <mxCell id="sfWffZ3PeyV2pCnH3za--55" value="transaction_status" style="ellipse;whiteSpace=wrap;html=1;" parent="1" vertex="1">
          <mxGeometry x="-20" y="820" width="110" height="40" as="geometry" />
        </mxCell>
        <mxCell id="sfWffZ3PeyV2pCnH3za--57" value="Amount" style="ellipse;whiteSpace=wrap;html=1;fillColor=#FFFF99;" parent="1" vertex="1">
          <mxGeometry x="100" y="830" width="90" height="30" as="geometry" />
        </mxCell>
        <mxCell id="sfWffZ3PeyV2pCnH3za--83" value="supplier" style="rounded=0;whiteSpace=wrap;html=1;" parent="1" vertex="1">
          <mxGeometry x="-310" y="1690" width="120" height="60" as="geometry" />
        </mxCell>
        <mxCell id="sfWffZ3PeyV2pCnH3za--84" value="supplier_id" style="ellipse;whiteSpace=wrap;html=1;fontStyle=4" parent="1" vertex="1">
          <mxGeometry x="-472" y="1600" width="99.5" height="50" as="geometry" />
        </mxCell>
        <mxCell id="sfWffZ3PeyV2pCnH3za--85" value="supplier_name" style="ellipse;whiteSpace=wrap;html=1;" parent="1" vertex="1">
          <mxGeometry x="-636" y="1690" width="120.25" height="40" as="geometry" />
        </mxCell>
        <mxCell id="sfWffZ3PeyV2pCnH3za--86" value="supplier_Email" style="ellipse;whiteSpace=wrap;html=1;" parent="1" vertex="1">
          <mxGeometry x="-575" y="1610" width="100" height="50" as="geometry" />
        </mxCell>
        <mxCell id="sfWffZ3PeyV2pCnH3za--99" value="product_id" style="ellipse;whiteSpace=wrap;html=1;" parent="1" vertex="1">
          <mxGeometry x="-522.25" y="1480" width="112.5" height="50" as="geometry" />
        </mxCell>
        <mxCell id="sfWffZ3PeyV2pCnH3za--100" value="stock" style="ellipse;whiteSpace=wrap;html=1;" parent="1" vertex="1">
          <mxGeometry x="-460" y="1545" width="113" height="50" as="geometry" />
        </mxCell>
        <mxCell id="sfWffZ3PeyV2pCnH3za--104" value="delivery" style="rounded=0;whiteSpace=wrap;html=1;" parent="1" vertex="1">
          <mxGeometry x="479.39" y="930" width="120" height="60" as="geometry" />
        </mxCell>
        <mxCell id="sfWffZ3PeyV2pCnH3za--105" value="delivery_id" style="ellipse;whiteSpace=wrap;html=1;fontStyle=4" parent="1" vertex="1">
          <mxGeometry x="660" y="885" width="100" height="45" as="geometry" />
        </mxCell>
        <mxCell id="sfWffZ3PeyV2pCnH3za--106" value="Transaction_ID" style="ellipse;whiteSpace=wrap;html=1;fillColor=#CCFFFF;" parent="1" vertex="1">
          <mxGeometry x="484.39" y="1042" width="110" height="40" as="geometry" />
        </mxCell>
        <mxCell id="sfWffZ3PeyV2pCnH3za--108" value="delivery_status" style="ellipse;whiteSpace=wrap;html=1;" parent="1" vertex="1">
          <mxGeometry x="560" y="860" width="100" height="45" as="geometry" />
        </mxCell>
        <mxCell id="sfWffZ3PeyV2pCnH3za--115" value="category" style="rounded=0;whiteSpace=wrap;html=1;" parent="1" vertex="1">
          <mxGeometry x="272" y="1255" width="120" height="60" as="geometry" />
        </mxCell>
        <mxCell id="sfWffZ3PeyV2pCnH3za--116" value="category_id" style="ellipse;whiteSpace=wrap;html=1;fontStyle=4" parent="1" vertex="1">
          <mxGeometry x="425" y="1310" width="120" height="45" as="geometry" />
        </mxCell>
        <mxCell id="sfWffZ3PeyV2pCnH3za--118" value="category_type" style="ellipse;whiteSpace=wrap;html=1;" parent="1" vertex="1">
          <mxGeometry x="425" y="1250" width="115" height="49" as="geometry" />
        </mxCell>
        <mxCell id="DJvpjTa6kjWMiN1_DL-c-12" value="product_id" style="ellipse;whiteSpace=wrap;html=1;fontStyle=4" parent="1" vertex="1">
          <mxGeometry x="-688.5" y="1270" width="113.5" height="50" as="geometry" />
        </mxCell>
        <mxCell id="sfWffZ3PeyV2pCnH3za--152" value="product" style="rounded=0;whiteSpace=wrap;html=1;" parent="1" vertex="1">
          <mxGeometry x="-258" y="1255" width="120" height="60" as="geometry" />
        </mxCell>
        <mxCell id="sfWffZ3PeyV2pCnH3za--186" style="edgeStyle=orthogonalEdgeStyle;rounded=0;orthogonalLoop=1;jettySize=auto;html=1;exitX=0.5;exitY=1;exitDx=0;exitDy=0;" parent="1" edge="1">
          <mxGeometry relative="1" as="geometry">
            <mxPoint x="-380" y="690" as="sourcePoint" />
            <mxPoint x="-380" y="690" as="targetPoint" />
          </mxGeometry>
        </mxCell>
        <mxCell id="sfWffZ3PeyV2pCnH3za--209" value="password_hash" style="ellipse;whiteSpace=wrap;html=1;" parent="1" vertex="1">
          <mxGeometry x="-440" y="600" width="100" height="40" as="geometry" />
        </mxCell>
        <mxCell id="XtCPLWf1f0sHJ1Zrk5SG-8" value="" style="endArrow=none;html=1;rounded=0;entryX=0.5;entryY=1;entryDx=0;entryDy=0;" parent="1" target="sfWffZ3PeyV2pCnH3za--108" edge="1">
          <mxGeometry relative="1" as="geometry">
            <mxPoint x="540" y="930" as="sourcePoint" />
            <mxPoint x="798.89" y="1155" as="targetPoint" />
          </mxGeometry>
        </mxCell>
        <mxCell id="XtCPLWf1f0sHJ1Zrk5SG-9" value="" style="endArrow=none;html=1;rounded=0;exitX=0;exitY=1;exitDx=0;exitDy=0;entryX=0.5;entryY=0;entryDx=0;entryDy=0;" parent="1" source="sfWffZ3PeyV2pCnH3za--105" target="sfWffZ3PeyV2pCnH3za--104" edge="1">
          <mxGeometry relative="1" as="geometry">
            <mxPoint x="1050.8899999999999" y="962" as="sourcePoint" />
            <mxPoint x="599" y="960" as="targetPoint" />
          </mxGeometry>
        </mxCell>
        <mxCell id="XtCPLWf1f0sHJ1Zrk5SG-10" value="" style="endArrow=none;html=1;rounded=0;entryX=0.5;entryY=1;entryDx=0;entryDy=0;exitX=0.5;exitY=0;exitDx=0;exitDy=0;" parent="1" source="sfWffZ3PeyV2pCnH3za--106" target="sfWffZ3PeyV2pCnH3za--104" edge="1">
          <mxGeometry relative="1" as="geometry">
            <mxPoint x="638.89" y="1155" as="sourcePoint" />
            <mxPoint x="798.89" y="1155" as="targetPoint" />
          </mxGeometry>
        </mxCell>
        <mxCell id="XtCPLWf1f0sHJ1Zrk5SG-12" value="" style="endArrow=none;html=1;rounded=0;exitX=1;exitY=1;exitDx=0;exitDy=0;entryX=0.5;entryY=0;entryDx=0;entryDy=0;" parent="1" source="sfWffZ3PeyV2pCnH3za--209" target="DJvpjTa6kjWMiN1_DL-c-1" edge="1">
          <mxGeometry relative="1" as="geometry">
            <mxPoint x="-210" y="600" as="sourcePoint" />
            <mxPoint x="-50" y="600" as="targetPoint" />
          </mxGeometry>
        </mxCell>
        <mxCell id="XtCPLWf1f0sHJ1Zrk5SG-13" value="" style="endArrow=none;html=1;rounded=0;exitX=1;exitY=1;exitDx=0;exitDy=0;entryX=0.5;entryY=0;entryDx=0;entryDy=0;" parent="1" source="DJvpjTa6kjWMiN1_DL-c-4" target="DJvpjTa6kjWMiN1_DL-c-1" edge="1">
          <mxGeometry relative="1" as="geometry">
            <mxPoint x="-210" y="600" as="sourcePoint" />
            <mxPoint x="-50" y="600" as="targetPoint" />
          </mxGeometry>
        </mxCell>
        <mxCell id="XtCPLWf1f0sHJ1Zrk5SG-15" value="" style="endArrow=none;html=1;rounded=0;exitX=0.5;exitY=1;exitDx=0;exitDy=0;entryX=0.5;entryY=0;entryDx=0;entryDy=0;" parent="1" source="DJvpjTa6kjWMiN1_DL-c-2" target="DJvpjTa6kjWMiN1_DL-c-1" edge="1">
          <mxGeometry relative="1" as="geometry">
            <mxPoint x="-210" y="600" as="sourcePoint" />
            <mxPoint x="-50" y="600" as="targetPoint" />
          </mxGeometry>
        </mxCell>
        <mxCell id="XtCPLWf1f0sHJ1Zrk5SG-24" value="" style="endArrow=none;html=1;rounded=0;exitX=1;exitY=0.5;exitDx=0;exitDy=0;entryX=0;entryY=0.5;entryDx=0;entryDy=0;" parent="1" source="YKeoQCYXLqFoOjlAf17W-1" target="DJvpjTa6kjWMiN1_DL-c-10" edge="1">
          <mxGeometry relative="1" as="geometry">
            <mxPoint x="-754.402020253553" y="989.079689783217" as="sourcePoint" />
            <mxPoint x="-18.5" y="1154.5" as="targetPoint" />
          </mxGeometry>
        </mxCell>
        <mxCell id="XtCPLWf1f0sHJ1Zrk5SG-25" value="" style="endArrow=none;html=1;rounded=0;exitX=1;exitY=0;exitDx=0;exitDy=0;entryX=0;entryY=0.5;entryDx=0;entryDy=0;" parent="1" source="sfWffZ3PeyV2pCnH3za--29" target="DJvpjTa6kjWMiN1_DL-c-10" edge="1">
          <mxGeometry relative="1" as="geometry">
            <mxPoint x="-218.5" y="1180.5" as="sourcePoint" />
            <mxPoint x="-18.5" y="1154.5" as="targetPoint" />
          </mxGeometry>
        </mxCell>
        <mxCell id="XtCPLWf1f0sHJ1Zrk5SG-26" value="" style="endArrow=none;html=1;rounded=0;exitX=0.5;exitY=0;exitDx=0;exitDy=0;entryX=0;entryY=0.5;entryDx=0;entryDy=0;" parent="1" source="sfWffZ3PeyV2pCnH3za--30" target="DJvpjTa6kjWMiN1_DL-c-10" edge="1">
          <mxGeometry relative="1" as="geometry">
            <mxPoint x="-218.5" y="1180.5" as="sourcePoint" />
            <mxPoint x="-258.5" y="1130.5" as="targetPoint" />
          </mxGeometry>
        </mxCell>
        <mxCell id="XtCPLWf1f0sHJ1Zrk5SG-28" value="" style="endArrow=none;html=1;rounded=0;entryX=0;entryY=0.5;entryDx=0;entryDy=0;exitX=1;exitY=0.5;exitDx=0;exitDy=0;" parent="1" source="DJvpjTa6kjWMiN1_DL-c-10" target="sfWffZ3PeyV2pCnH3za--50" edge="1">
          <mxGeometry relative="1" as="geometry">
            <mxPoint x="-140" y="1117" as="sourcePoint" />
            <mxPoint x="60" y="1117" as="targetPoint" />
            <Array as="points">
              <mxPoint x="-120" y="960" />
            </Array>
          </mxGeometry>
        </mxCell>
        <mxCell id="NvE9XVo1AVocZ1LcWe5p-111" value="1" style="edgeLabel;html=1;align=center;verticalAlign=middle;resizable=0;points=[];" parent="XtCPLWf1f0sHJ1Zrk5SG-28" vertex="1" connectable="0">
          <mxGeometry x="0.682" y="2" relative="1" as="geometry">
            <mxPoint as="offset" />
          </mxGeometry>
        </mxCell>
        <mxCell id="XtCPLWf1f0sHJ1Zrk5SG-32" value="" style="endArrow=none;html=1;rounded=0;exitX=0.5;exitY=0;exitDx=0;exitDy=0;entryX=0.5;entryY=1;entryDx=0;entryDy=0;" parent="1" source="sfWffZ3PeyV2pCnH3za--50" target="sfWffZ3PeyV2pCnH3za--57" edge="1">
          <mxGeometry relative="1" as="geometry">
            <mxPoint x="398" y="1070" as="sourcePoint" />
            <mxPoint x="558" y="1070" as="targetPoint" />
          </mxGeometry>
        </mxCell>
        <mxCell id="XtCPLWf1f0sHJ1Zrk5SG-34" value="" style="endArrow=none;html=1;rounded=0;exitX=0.5;exitY=0;exitDx=0;exitDy=0;entryX=0.5;entryY=1;entryDx=0;entryDy=0;" parent="1" source="sfWffZ3PeyV2pCnH3za--50" target="sfWffZ3PeyV2pCnH3za--55" edge="1">
          <mxGeometry relative="1" as="geometry">
            <mxPoint x="398" y="1070" as="sourcePoint" />
            <mxPoint x="558" y="1070" as="targetPoint" />
          </mxGeometry>
        </mxCell>
        <mxCell id="XtCPLWf1f0sHJ1Zrk5SG-35" value="" style="endArrow=none;html=1;rounded=0;exitX=0.5;exitY=0;exitDx=0;exitDy=0;entryX=1;entryY=1;entryDx=0;entryDy=0;" parent="1" source="sfWffZ3PeyV2pCnH3za--50" target="sfWffZ3PeyV2pCnH3za--54" edge="1">
          <mxGeometry relative="1" as="geometry">
            <mxPoint x="398" y="1070" as="sourcePoint" />
            <mxPoint x="558" y="1070" as="targetPoint" />
          </mxGeometry>
        </mxCell>
        <mxCell id="XtCPLWf1f0sHJ1Zrk5SG-36" value="" style="endArrow=none;html=1;rounded=0;exitX=0.5;exitY=1;exitDx=0;exitDy=0;entryX=0.5;entryY=0;entryDx=0;entryDy=0;" parent="1" source="sfWffZ3PeyV2pCnH3za--50" target="sfWffZ3PeyV2pCnH3za--53" edge="1">
          <mxGeometry relative="1" as="geometry">
            <mxPoint x="398" y="1070" as="sourcePoint" />
            <mxPoint x="558" y="1070" as="targetPoint" />
          </mxGeometry>
        </mxCell>
        <mxCell id="XtCPLWf1f0sHJ1Zrk5SG-37" value="" style="endArrow=none;html=1;rounded=0;exitX=0.5;exitY=1;exitDx=0;exitDy=0;entryX=0;entryY=0;entryDx=0;entryDy=0;" parent="1" source="sfWffZ3PeyV2pCnH3za--50" target="sfWffZ3PeyV2pCnH3za--52" edge="1">
          <mxGeometry relative="1" as="geometry">
            <mxPoint x="398" y="1070" as="sourcePoint" />
            <mxPoint x="558" y="1070" as="targetPoint" />
          </mxGeometry>
        </mxCell>
        <mxCell id="XtCPLWf1f0sHJ1Zrk5SG-38" value="" style="endArrow=none;html=1;rounded=0;exitX=0.5;exitY=0;exitDx=0;exitDy=0;entryX=0;entryY=1;entryDx=0;entryDy=0;" parent="1" source="sfWffZ3PeyV2pCnH3za--50" target="sfWffZ3PeyV2pCnH3za--51" edge="1">
          <mxGeometry relative="1" as="geometry">
            <mxPoint x="398" y="1070" as="sourcePoint" />
            <mxPoint x="558" y="1070" as="targetPoint" />
          </mxGeometry>
        </mxCell>
        <mxCell id="XtCPLWf1f0sHJ1Zrk5SG-43" value="" style="endArrow=none;html=1;rounded=0;exitX=0.5;exitY=0;exitDx=0;exitDy=0;entryX=1;entryY=1;entryDx=0;entryDy=0;" parent="1" source="sfWffZ3PeyV2pCnH3za--50" target="WQmhXsl1sZ4_U4UlZRrz-79" edge="1">
          <mxGeometry relative="1" as="geometry">
            <mxPoint x="958" y="1010" as="sourcePoint" />
            <mxPoint x="897.6446609406948" y="925.857864376278" as="targetPoint" />
          </mxGeometry>
        </mxCell>
        <mxCell id="XtCPLWf1f0sHJ1Zrk5SG-57" value="" style="endArrow=none;html=1;rounded=0;entryX=0;entryY=0.5;entryDx=0;entryDy=0;exitX=1;exitY=1;exitDx=0;exitDy=0;" parent="1" source="sfWffZ3PeyV2pCnH3za--4" target="sfWffZ3PeyV2pCnH3za--152" edge="1">
          <mxGeometry relative="1" as="geometry">
            <mxPoint x="-320" y="1370" as="sourcePoint" />
            <mxPoint x="-318" y="1280" as="targetPoint" />
          </mxGeometry>
        </mxCell>
        <mxCell id="XtCPLWf1f0sHJ1Zrk5SG-59" value="" style="endArrow=none;html=1;rounded=0;entryX=0;entryY=0.5;entryDx=0;entryDy=0;exitX=1;exitY=0;exitDx=0;exitDy=0;" parent="1" source="DJvpjTa6kjWMiN1_DL-c-12" target="sfWffZ3PeyV2pCnH3za--152" edge="1">
          <mxGeometry relative="1" as="geometry">
            <mxPoint x="-320" y="1370" as="sourcePoint" />
            <mxPoint x="-318" y="1280" as="targetPoint" />
          </mxGeometry>
        </mxCell>
        <mxCell id="XtCPLWf1f0sHJ1Zrk5SG-62" value="" style="endArrow=none;html=1;rounded=0;entryX=0;entryY=0.5;entryDx=0;entryDy=0;exitX=0.5;exitY=0;exitDx=0;exitDy=0;" parent="1" source="sfWffZ3PeyV2pCnH3za--2" target="sfWffZ3PeyV2pCnH3za--152" edge="1">
          <mxGeometry relative="1" as="geometry">
            <mxPoint x="-320" y="1370" as="sourcePoint" />
            <mxPoint x="-318" y="1280" as="targetPoint" />
          </mxGeometry>
        </mxCell>
        <mxCell id="XtCPLWf1f0sHJ1Zrk5SG-63" value="" style="endArrow=none;html=1;rounded=0;entryX=0;entryY=0.5;entryDx=0;entryDy=0;exitX=1;exitY=0;exitDx=0;exitDy=0;" parent="1" source="sfWffZ3PeyV2pCnH3za--6" target="sfWffZ3PeyV2pCnH3za--152" edge="1">
          <mxGeometry relative="1" as="geometry">
            <mxPoint x="-320" y="1370" as="sourcePoint" />
            <mxPoint x="-318" y="1280" as="targetPoint" />
          </mxGeometry>
        </mxCell>
        <mxCell id="XtCPLWf1f0sHJ1Zrk5SG-67" value="order_details" style="ellipse;whiteSpace=wrap;html=1;align=center;" parent="1" vertex="1">
          <mxGeometry x="-570" y="910" width="100" height="40" as="geometry" />
        </mxCell>
        <mxCell id="XtCPLWf1f0sHJ1Zrk5SG-68" value="" style="endArrow=none;html=1;rounded=0;exitX=1;exitY=0.5;exitDx=0;exitDy=0;entryX=0;entryY=0.5;entryDx=0;entryDy=0;" parent="1" source="XtCPLWf1f0sHJ1Zrk5SG-67" target="DJvpjTa6kjWMiN1_DL-c-10" edge="1">
          <mxGeometry relative="1" as="geometry">
            <mxPoint x="-267" y="1331" as="sourcePoint" />
            <mxPoint x="-250" y="1117" as="targetPoint" />
          </mxGeometry>
        </mxCell>
        <mxCell id="XtCPLWf1f0sHJ1Zrk5SG-88" value="" style="endArrow=none;html=1;rounded=0;exitX=1;exitY=0;exitDx=0;exitDy=0;entryX=0;entryY=0.5;entryDx=0;entryDy=0;" parent="1" source="sfWffZ3PeyV2pCnH3za--99" target="sfWffZ3PeyV2pCnH3za--187" edge="1">
          <mxGeometry relative="1" as="geometry">
            <mxPoint x="-752.5" y="1700" as="sourcePoint" />
            <mxPoint x="-253" y="1580" as="targetPoint" />
          </mxGeometry>
        </mxCell>
        <mxCell id="XtCPLWf1f0sHJ1Zrk5SG-89" value="" style="endArrow=none;html=1;rounded=0;entryX=0;entryY=0.5;entryDx=0;entryDy=0;exitX=0.5;exitY=0;exitDx=0;exitDy=0;" parent="1" source="sfWffZ3PeyV2pCnH3za--100" target="sfWffZ3PeyV2pCnH3za--187" edge="1">
          <mxGeometry relative="1" as="geometry">
            <mxPoint x="-123" y="1640" as="sourcePoint" />
            <mxPoint x="37" y="1640" as="targetPoint" />
          </mxGeometry>
        </mxCell>
        <mxCell id="XtCPLWf1f0sHJ1Zrk5SG-90" value="" style="endArrow=none;html=1;rounded=0;entryX=0;entryY=0.5;entryDx=0;entryDy=0;exitX=1;exitY=0.5;exitDx=0;exitDy=0;" parent="1" source="sfWffZ3PeyV2pCnH3za--84" target="sfWffZ3PeyV2pCnH3za--83" edge="1">
          <mxGeometry relative="1" as="geometry">
            <mxPoint x="-391.5" y="1600" as="sourcePoint" />
            <mxPoint x="-231.5" y="1600" as="targetPoint" />
          </mxGeometry>
        </mxCell>
        <mxCell id="XtCPLWf1f0sHJ1Zrk5SG-91" value="" style="endArrow=none;html=1;rounded=0;entryX=0;entryY=0.5;entryDx=0;entryDy=0;exitX=1;exitY=0.5;exitDx=0;exitDy=0;" parent="1" source="sfWffZ3PeyV2pCnH3za--86" target="sfWffZ3PeyV2pCnH3za--83" edge="1">
          <mxGeometry relative="1" as="geometry">
            <mxPoint x="-391.5" y="1600" as="sourcePoint" />
            <mxPoint x="-231.5" y="1600" as="targetPoint" />
          </mxGeometry>
        </mxCell>
        <mxCell id="XtCPLWf1f0sHJ1Zrk5SG-92" value="" style="endArrow=none;html=1;rounded=0;entryX=0;entryY=0.5;entryDx=0;entryDy=0;exitX=0.773;exitY=0.084;exitDx=0;exitDy=0;exitPerimeter=0;" parent="1" source="sfWffZ3PeyV2pCnH3za--85" target="sfWffZ3PeyV2pCnH3za--83" edge="1">
          <mxGeometry relative="1" as="geometry">
            <mxPoint x="-391.5" y="1600" as="sourcePoint" />
            <mxPoint x="-231.5" y="1600" as="targetPoint" />
          </mxGeometry>
        </mxCell>
        <mxCell id="XtCPLWf1f0sHJ1Zrk5SG-93" value="" style="endArrow=none;html=1;rounded=0;entryX=0;entryY=0.5;entryDx=0;entryDy=0;exitX=1;exitY=0.5;exitDx=0;exitDy=0;" parent="1" source="sfWffZ3PeyV2pCnH3za--115" target="sfWffZ3PeyV2pCnH3za--116" edge="1">
          <mxGeometry relative="1" as="geometry">
            <mxPoint x="184.11" y="1320" as="sourcePoint" />
            <mxPoint x="344.11" y="1320" as="targetPoint" />
          </mxGeometry>
        </mxCell>
        <mxCell id="XtCPLWf1f0sHJ1Zrk5SG-95" value="" style="endArrow=none;html=1;rounded=0;entryX=0;entryY=0.5;entryDx=0;entryDy=0;exitX=1;exitY=0.5;exitDx=0;exitDy=0;" parent="1" source="sfWffZ3PeyV2pCnH3za--115" target="sfWffZ3PeyV2pCnH3za--118" edge="1">
          <mxGeometry relative="1" as="geometry">
            <mxPoint x="184.11" y="1320" as="sourcePoint" />
            <mxPoint x="344.11" y="1320" as="targetPoint" />
          </mxGeometry>
        </mxCell>
        <mxCell id="XtCPLWf1f0sHJ1Zrk5SG-107" value="" style="endArrow=none;html=1;rounded=0;entryX=1;entryY=1;entryDx=0;entryDy=0;exitX=0;exitY=0.5;exitDx=0;exitDy=0;" parent="1" source="sfWffZ3PeyV2pCnH3za--152" target="XtCPLWf1f0sHJ1Zrk5SG-152" edge="1">
          <mxGeometry relative="1" as="geometry">
            <mxPoint x="790" y="760" as="sourcePoint" />
            <mxPoint x="900.5000000000173" y="727.5" as="targetPoint" />
          </mxGeometry>
        </mxCell>
        <mxCell id="XtCPLWf1f0sHJ1Zrk5SG-132" value="" style="endArrow=none;html=1;rounded=0;exitX=0.5;exitY=1;exitDx=0;exitDy=0;entryX=0.5;entryY=0;entryDx=0;entryDy=0;" parent="1" source="sfWffZ3PeyV2pCnH3za--187" target="sfWffZ3PeyV2pCnH3za--83" edge="1">
          <mxGeometry relative="1" as="geometry">
            <mxPoint x="117" y="1610" as="sourcePoint" />
            <mxPoint x="-198" y="1740" as="targetPoint" />
          </mxGeometry>
        </mxCell>
        <mxCell id="NvE9XVo1AVocZ1LcWe5p-9" value="N" style="edgeLabel;html=1;align=center;verticalAlign=middle;resizable=0;points=[];" parent="XtCPLWf1f0sHJ1Zrk5SG-132" vertex="1" connectable="0">
          <mxGeometry x="0.7228" y="1" relative="1" as="geometry">
            <mxPoint x="-2" as="offset" />
          </mxGeometry>
        </mxCell>
        <mxCell id="XtCPLWf1f0sHJ1Zrk5SG-133" value="" style="endArrow=none;html=1;rounded=0;entryX=0.5;entryY=0;entryDx=0;entryDy=0;exitX=0.5;exitY=1;exitDx=0;exitDy=0;" parent="1" source="sfWffZ3PeyV2pCnH3za--152" target="sfWffZ3PeyV2pCnH3za--187" edge="1">
          <mxGeometry relative="1" as="geometry">
            <mxPoint x="-198" y="1400" as="sourcePoint" />
            <mxPoint x="-33" y="1590" as="targetPoint" />
            <Array as="points">
              <mxPoint x="-198" y="1350" />
              <mxPoint x="-250" y="1350" />
            </Array>
          </mxGeometry>
        </mxCell>
        <mxCell id="NvE9XVo1AVocZ1LcWe5p-10" value="M" style="edgeLabel;html=1;align=center;verticalAlign=middle;resizable=0;points=[];" parent="XtCPLWf1f0sHJ1Zrk5SG-133" vertex="1" connectable="0">
          <mxGeometry x="-0.6561" y="3" relative="1" as="geometry">
            <mxPoint x="-15" y="-3" as="offset" />
          </mxGeometry>
        </mxCell>
        <mxCell id="sfWffZ3PeyV2pCnH3za--187" value="supply" style="shape=rhombus;perimeter=rhombusPerimeter;whiteSpace=wrap;html=1;align=center;" parent="1" vertex="1">
          <mxGeometry x="-310" y="1495" width="120" height="60" as="geometry" />
        </mxCell>
        <mxCell id="XtCPLWf1f0sHJ1Zrk5SG-152" value="rate_value" style="ellipse;whiteSpace=wrap;html=1;align=center;" parent="1" vertex="1">
          <mxGeometry x="-550" y="1160" width="109.75" height="40" as="geometry" />
        </mxCell>
        <mxCell id="XtCPLWf1f0sHJ1Zrk5SG-157" value="membership" style="ellipse;whiteSpace=wrap;html=1;align=center;" parent="1" vertex="1">
          <mxGeometry x="-130" y="525" width="100" height="40" as="geometry" />
        </mxCell>
        <mxCell id="XtCPLWf1f0sHJ1Zrk5SG-158" value="" style="endArrow=none;html=1;rounded=0;exitX=0.5;exitY=1;exitDx=0;exitDy=0;" parent="1" source="XtCPLWf1f0sHJ1Zrk5SG-157" edge="1">
          <mxGeometry relative="1" as="geometry">
            <mxPoint x="-360" y="670" as="sourcePoint" />
            <mxPoint x="-200" y="730" as="targetPoint" />
          </mxGeometry>
        </mxCell>
        <mxCell id="WQmhXsl1sZ4_U4UlZRrz-1" value="date_of_birth" style="ellipse;whiteSpace=wrap;html=1;align=center;" parent="1" vertex="1">
          <mxGeometry x="-238" y="515" width="100" height="40" as="geometry" />
        </mxCell>
        <mxCell id="WQmhXsl1sZ4_U4UlZRrz-3" value="gender" style="ellipse;whiteSpace=wrap;html=1;align=center;" parent="1" vertex="1">
          <mxGeometry x="-70" y="570" width="100" height="40" as="geometry" />
        </mxCell>
        <mxCell id="WQmhXsl1sZ4_U4UlZRrz-4" value="first_name" style="ellipse;whiteSpace=wrap;html=1;align=center;" parent="1" vertex="1">
          <mxGeometry x="-40" y="670" width="100" height="40" as="geometry" />
        </mxCell>
        <mxCell id="WQmhXsl1sZ4_U4UlZRrz-6" value="last_name" style="ellipse;whiteSpace=wrap;html=1;align=center;" parent="1" vertex="1">
          <mxGeometry x="-40" y="620" width="100" height="40" as="geometry" />
        </mxCell>
        <mxCell id="WQmhXsl1sZ4_U4UlZRrz-7" value="" style="endArrow=none;html=1;rounded=0;exitX=0.5;exitY=1;exitDx=0;exitDy=0;entryX=0.5;entryY=0;entryDx=0;entryDy=0;" parent="1" source="WQmhXsl1sZ4_U4UlZRrz-4" target="DJvpjTa6kjWMiN1_DL-c-1" edge="1">
          <mxGeometry relative="1" as="geometry">
            <mxPoint x="-400" y="650" as="sourcePoint" />
            <mxPoint x="-270" y="550" as="targetPoint" />
          </mxGeometry>
        </mxCell>
        <mxCell id="WQmhXsl1sZ4_U4UlZRrz-9" value="" style="endArrow=none;html=1;rounded=0;exitX=0.5;exitY=1;exitDx=0;exitDy=0;entryX=0.5;entryY=0;entryDx=0;entryDy=0;" parent="1" source="WQmhXsl1sZ4_U4UlZRrz-6" target="DJvpjTa6kjWMiN1_DL-c-1" edge="1">
          <mxGeometry relative="1" as="geometry">
            <mxPoint x="-400" y="650" as="sourcePoint" />
            <mxPoint x="-270" y="560" as="targetPoint" />
          </mxGeometry>
        </mxCell>
        <mxCell id="WQmhXsl1sZ4_U4UlZRrz-12" value="" style="endArrow=none;html=1;rounded=0;exitX=0.5;exitY=1;exitDx=0;exitDy=0;entryX=0.5;entryY=0;entryDx=0;entryDy=0;" parent="1" source="WQmhXsl1sZ4_U4UlZRrz-1" target="DJvpjTa6kjWMiN1_DL-c-1" edge="1">
          <mxGeometry relative="1" as="geometry">
            <mxPoint x="-400" y="640" as="sourcePoint" />
            <mxPoint x="-240" y="640" as="targetPoint" />
          </mxGeometry>
        </mxCell>
        <mxCell id="WQmhXsl1sZ4_U4UlZRrz-13" value="" style="endArrow=none;html=1;rounded=0;entryX=0.5;entryY=0;entryDx=0;entryDy=0;exitX=0.5;exitY=1;exitDx=0;exitDy=0;" parent="1" source="WQmhXsl1sZ4_U4UlZRrz-3" target="DJvpjTa6kjWMiN1_DL-c-1" edge="1">
          <mxGeometry relative="1" as="geometry">
            <mxPoint x="-400" y="640" as="sourcePoint" />
            <mxPoint x="-240" y="640" as="targetPoint" />
          </mxGeometry>
        </mxCell>
        <mxCell id="WQmhXsl1sZ4_U4UlZRrz-79" value="payment_method" style="ellipse;whiteSpace=wrap;html=1;align=center;" parent="1" vertex="1">
          <mxGeometry x="-109.99999999999994" y="849" width="100" height="40" as="geometry" />
        </mxCell>
        <mxCell id="WQmhXsl1sZ4_U4UlZRrz-101" value="" style="endArrow=none;html=1;rounded=0;entryX=0;entryY=0.5;entryDx=0;entryDy=0;exitX=1;exitY=0.5;exitDx=0;exitDy=0;" parent="1" source="sfWffZ3PeyV2pCnH3za--152" target="sfWffZ3PeyV2pCnH3za--160" edge="1">
          <mxGeometry relative="1" as="geometry">
            <mxPoint x="50" y="1350" as="sourcePoint" />
            <mxPoint x="385" y="1350" as="targetPoint" />
            <Array as="points" />
          </mxGeometry>
        </mxCell>
        <mxCell id="WQmhXsl1sZ4_U4UlZRrz-103" value="N" style="edgeLabel;html=1;align=center;verticalAlign=middle;resizable=0;points=[];" parent="WQmhXsl1sZ4_U4UlZRrz-101" connectable="0" vertex="1">
          <mxGeometry x="0.5732" y="-1" relative="1" as="geometry">
            <mxPoint as="offset" />
          </mxGeometry>
        </mxCell>
        <mxCell id="sfWffZ3PeyV2pCnH3za--160" value="belong to" style="rhombus;whiteSpace=wrap;html=1;" parent="1" vertex="1">
          <mxGeometry x="49.11" y="1255" width="100" height="60" as="geometry" />
        </mxCell>
        <mxCell id="WQmhXsl1sZ4_U4UlZRrz-115" value="customer_address" style="ellipse;whiteSpace=wrap;html=1;align=center;" parent="1" vertex="1">
          <mxGeometry x="-435" y="670" width="115" height="50" as="geometry" />
        </mxCell>
        <mxCell id="WQmhXsl1sZ4_U4UlZRrz-118" value="" style="endArrow=none;html=1;rounded=0;exitX=0.5;exitY=0;exitDx=0;exitDy=0;entryX=1;entryY=0.5;entryDx=0;entryDy=0;" parent="1" source="DJvpjTa6kjWMiN1_DL-c-1" target="WQmhXsl1sZ4_U4UlZRrz-115" edge="1">
          <mxGeometry relative="1" as="geometry">
            <mxPoint x="-10" y="550" as="sourcePoint" />
            <mxPoint x="150" y="550" as="targetPoint" />
          </mxGeometry>
        </mxCell>
        <mxCell id="c5mrCIIjYXhkZ7xXHcnm-13" value="supplier_id" style="ellipse;whiteSpace=wrap;html=1;align=center;" parent="1" vertex="1">
          <mxGeometry x="-415" y="1455" width="100" height="40" as="geometry" />
        </mxCell>
        <mxCell id="c5mrCIIjYXhkZ7xXHcnm-14" value="Category_ID" style="ellipse;whiteSpace=wrap;html=1;align=center;fillColor=#CCFFFF;" parent="1" vertex="1">
          <mxGeometry x="-380" y="1409" width="100" height="40" as="geometry" />
        </mxCell>
        <mxCell id="c5mrCIIjYXhkZ7xXHcnm-15" value="" style="endArrow=none;html=1;rounded=0;entryX=0;entryY=0.5;entryDx=0;entryDy=0;exitX=1;exitY=0;exitDx=0;exitDy=0;" parent="1" source="c5mrCIIjYXhkZ7xXHcnm-14" target="sfWffZ3PeyV2pCnH3za--152" edge="1">
          <mxGeometry relative="1" as="geometry">
            <mxPoint x="-180" y="1280" as="sourcePoint" />
            <mxPoint x="-318" y="1280" as="targetPoint" />
          </mxGeometry>
        </mxCell>
        <mxCell id="c5mrCIIjYXhkZ7xXHcnm-16" value="" style="endArrow=none;html=1;rounded=0;exitX=1;exitY=0.5;exitDx=0;exitDy=0;entryX=0;entryY=0.5;entryDx=0;entryDy=0;" parent="1" source="c5mrCIIjYXhkZ7xXHcnm-13" target="sfWffZ3PeyV2pCnH3za--187" edge="1">
          <mxGeometry relative="1" as="geometry">
            <mxPoint x="-143" y="1650" as="sourcePoint" />
            <mxPoint x="-173" y="1600" as="targetPoint" />
          </mxGeometry>
        </mxCell>
        <mxCell id="c5mrCIIjYXhkZ7xXHcnm-17" value="delivery_start_date" style="ellipse;whiteSpace=wrap;html=1;align=center;" parent="1" vertex="1">
          <mxGeometry x="400" y="862" width="110" height="43" as="geometry" />
        </mxCell>
        <mxCell id="c5mrCIIjYXhkZ7xXHcnm-18" value="" style="endArrow=none;html=1;rounded=0;exitX=0.5;exitY=0;exitDx=0;exitDy=0;entryX=1;entryY=1;entryDx=0;entryDy=0;" parent="1" source="sfWffZ3PeyV2pCnH3za--104" target="c5mrCIIjYXhkZ7xXHcnm-17" edge="1">
          <mxGeometry relative="1" as="geometry">
            <mxPoint x="1258.8899999999999" y="995" as="sourcePoint" />
            <mxPoint x="1418.8899999999999" y="995" as="targetPoint" />
          </mxGeometry>
        </mxCell>
        <mxCell id="NvE9XVo1AVocZ1LcWe5p-12" value="zip_code" style="ellipse;whiteSpace=wrap;html=1;align=center;" parent="1" vertex="1">
          <mxGeometry x="-618.75" y="745" width="100" height="40" as="geometry" />
        </mxCell>
        <mxCell id="NvE9XVo1AVocZ1LcWe5p-13" value="country" style="ellipse;whiteSpace=wrap;html=1;align=center;" parent="1" vertex="1">
          <mxGeometry x="-618.75" y="695" width="100" height="40" as="geometry" />
        </mxCell>
        <mxCell id="NvE9XVo1AVocZ1LcWe5p-14" value="state" style="ellipse;whiteSpace=wrap;html=1;align=center;" parent="1" vertex="1">
          <mxGeometry x="-622.25" y="645" width="100" height="40" as="geometry" />
        </mxCell>
        <mxCell id="NvE9XVo1AVocZ1LcWe5p-15" value="city" style="ellipse;whiteSpace=wrap;html=1;align=center;" parent="1" vertex="1">
          <mxGeometry x="-622.25" y="595" width="100" height="40" as="geometry" />
        </mxCell>
        <mxCell id="NvE9XVo1AVocZ1LcWe5p-16" value="street" style="ellipse;whiteSpace=wrap;html=1;align=center;" parent="1" vertex="1">
          <mxGeometry x="-615.75" y="550" width="100" height="40" as="geometry" />
        </mxCell>
        <mxCell id="NvE9XVo1AVocZ1LcWe5p-17" value="" style="endArrow=none;html=1;rounded=0;exitX=1;exitY=0.5;exitDx=0;exitDy=0;entryX=0;entryY=0.5;entryDx=0;entryDy=0;" parent="1" source="NvE9XVo1AVocZ1LcWe5p-16" target="WQmhXsl1sZ4_U4UlZRrz-115" edge="1">
          <mxGeometry relative="1" as="geometry">
            <mxPoint x="-690" y="620" as="sourcePoint" />
            <mxPoint x="-530" y="620" as="targetPoint" />
          </mxGeometry>
        </mxCell>
        <mxCell id="NvE9XVo1AVocZ1LcWe5p-18" value="" style="endArrow=none;html=1;rounded=0;exitX=1;exitY=0.5;exitDx=0;exitDy=0;entryX=0;entryY=0.5;entryDx=0;entryDy=0;" parent="1" source="NvE9XVo1AVocZ1LcWe5p-15" target="WQmhXsl1sZ4_U4UlZRrz-115" edge="1">
          <mxGeometry relative="1" as="geometry">
            <mxPoint x="-10" y="600" as="sourcePoint" />
            <mxPoint x="150" y="600" as="targetPoint" />
          </mxGeometry>
        </mxCell>
        <mxCell id="NvE9XVo1AVocZ1LcWe5p-19" value="" style="endArrow=none;html=1;rounded=0;exitX=1;exitY=0.5;exitDx=0;exitDy=0;entryX=0;entryY=0.5;entryDx=0;entryDy=0;" parent="1" source="NvE9XVo1AVocZ1LcWe5p-14" target="WQmhXsl1sZ4_U4UlZRrz-115" edge="1">
          <mxGeometry relative="1" as="geometry">
            <mxPoint x="-10" y="600" as="sourcePoint" />
            <mxPoint x="150" y="600" as="targetPoint" />
          </mxGeometry>
        </mxCell>
        <mxCell id="NvE9XVo1AVocZ1LcWe5p-20" value="" style="endArrow=none;html=1;rounded=0;exitX=1;exitY=0.5;exitDx=0;exitDy=0;entryX=0;entryY=0.5;entryDx=0;entryDy=0;" parent="1" source="NvE9XVo1AVocZ1LcWe5p-13" target="WQmhXsl1sZ4_U4UlZRrz-115" edge="1">
          <mxGeometry relative="1" as="geometry">
            <mxPoint x="-10" y="600" as="sourcePoint" />
            <mxPoint x="150" y="600" as="targetPoint" />
          </mxGeometry>
        </mxCell>
        <mxCell id="NvE9XVo1AVocZ1LcWe5p-21" value="" style="endArrow=none;html=1;rounded=0;exitX=1;exitY=0.5;exitDx=0;exitDy=0;entryX=0;entryY=0.5;entryDx=0;entryDy=0;" parent="1" source="NvE9XVo1AVocZ1LcWe5p-12" target="WQmhXsl1sZ4_U4UlZRrz-115" edge="1">
          <mxGeometry relative="1" as="geometry">
            <mxPoint x="-10" y="600" as="sourcePoint" />
            <mxPoint x="150" y="600" as="targetPoint" />
          </mxGeometry>
        </mxCell>
        <mxCell id="NvE9XVo1AVocZ1LcWe5p-22" value="order_status" style="ellipse;whiteSpace=wrap;html=1;align=center;" parent="1" vertex="1">
          <mxGeometry x="-535" y="1006" width="100" height="40" as="geometry" />
        </mxCell>
        <mxCell id="NvE9XVo1AVocZ1LcWe5p-23" value="" style="endArrow=none;html=1;rounded=0;exitX=0;exitY=0.5;exitDx=0;exitDy=0;entryX=0.5;entryY=0;entryDx=0;entryDy=0;" parent="1" source="DJvpjTa6kjWMiN1_DL-c-10" target="NvE9XVo1AVocZ1LcWe5p-22" edge="1">
          <mxGeometry relative="1" as="geometry">
            <mxPoint x="-250" y="1130" as="sourcePoint" />
            <mxPoint x="150" y="1080" as="targetPoint" />
          </mxGeometry>
        </mxCell>
        <mxCell id="NvE9XVo1AVocZ1LcWe5p-24" value="" style="endArrow=none;html=1;rounded=0;entryX=0.5;entryY=0;entryDx=0;entryDy=0;exitX=0.5;exitY=1;exitDx=0;exitDy=0;" parent="1" source="DJvpjTa6kjWMiN1_DL-c-1" target="DJvpjTa6kjWMiN1_DL-c-10" edge="1">
          <mxGeometry relative="1" as="geometry">
            <mxPoint x="-200" y="870" as="sourcePoint" />
            <mxPoint x="150" y="1080" as="targetPoint" />
          </mxGeometry>
        </mxCell>
        <mxCell id="NvE9XVo1AVocZ1LcWe5p-29" value="N" style="edgeLabel;html=1;align=center;verticalAlign=middle;resizable=0;points=[];" parent="NvE9XVo1AVocZ1LcWe5p-24" vertex="1" connectable="0">
          <mxGeometry x="-0.6" relative="1" as="geometry">
            <mxPoint as="offset" />
          </mxGeometry>
        </mxCell>
        <mxCell id="NvE9XVo1AVocZ1LcWe5p-25" value="" style="endArrow=none;html=1;rounded=0;exitX=0.5;exitY=1;exitDx=0;exitDy=0;entryX=0.5;entryY=0;entryDx=0;entryDy=0;" parent="1" source="DJvpjTa6kjWMiN1_DL-c-10" target="sfWffZ3PeyV2pCnH3za--152" edge="1">
          <mxGeometry relative="1" as="geometry">
            <mxPoint x="-10" y="1080" as="sourcePoint" />
            <mxPoint x="150" y="1080" as="targetPoint" />
          </mxGeometry>
        </mxCell>
        <mxCell id="NvE9XVo1AVocZ1LcWe5p-30" value="M" style="edgeLabel;html=1;align=center;verticalAlign=middle;resizable=0;points=[];" parent="NvE9XVo1AVocZ1LcWe5p-25" vertex="1" connectable="0">
          <mxGeometry x="0.4303" relative="1" as="geometry">
            <mxPoint y="57" as="offset" />
          </mxGeometry>
        </mxCell>
        <mxCell id="NvE9XVo1AVocZ1LcWe5p-33" value="supplier_zip_code" style="ellipse;whiteSpace=wrap;html=1;align=center;" parent="1" vertex="1">
          <mxGeometry x="-483.25" y="1820" width="111.25" height="40" as="geometry" />
        </mxCell>
        <mxCell id="NvE9XVo1AVocZ1LcWe5p-34" value="supplier_country" style="ellipse;whiteSpace=wrap;html=1;align=center;" parent="1" vertex="1">
          <mxGeometry x="-594.5" y="1820" width="100" height="40" as="geometry" />
        </mxCell>
        <mxCell id="NvE9XVo1AVocZ1LcWe5p-35" value="supplier_state" style="ellipse;whiteSpace=wrap;html=1;align=center;" parent="1" vertex="1">
          <mxGeometry x="-550" y="1780" width="100" height="40" as="geometry" />
        </mxCell>
        <mxCell id="NvE9XVo1AVocZ1LcWe5p-36" value="supplier_city" style="ellipse;whiteSpace=wrap;html=1;align=center;" parent="1" vertex="1">
          <mxGeometry x="-625.87" y="1750" width="100" height="40" as="geometry" />
        </mxCell>
        <mxCell id="NvE9XVo1AVocZ1LcWe5p-37" value="supplier_street" style="ellipse;whiteSpace=wrap;html=1;align=center;" parent="1" vertex="1">
          <mxGeometry x="-736" y="1730" width="100" height="40" as="geometry" />
        </mxCell>
        <mxCell id="NvE9XVo1AVocZ1LcWe5p-38" value="" style="endArrow=none;html=1;rounded=0;exitX=1;exitY=0.5;exitDx=0;exitDy=0;" parent="1" source="NvE9XVo1AVocZ1LcWe5p-37" edge="1">
          <mxGeometry relative="1" as="geometry">
            <mxPoint x="138.5" y="1629" as="sourcePoint" />
            <mxPoint x="-310" y="1720" as="targetPoint" />
          </mxGeometry>
        </mxCell>
        <mxCell id="NvE9XVo1AVocZ1LcWe5p-39" value="" style="endArrow=none;html=1;rounded=0;exitX=1;exitY=0.5;exitDx=0;exitDy=0;entryX=0;entryY=0.5;entryDx=0;entryDy=0;" parent="1" source="NvE9XVo1AVocZ1LcWe5p-36" target="sfWffZ3PeyV2pCnH3za--83" edge="1">
          <mxGeometry relative="1" as="geometry">
            <mxPoint x="138.5" y="1629" as="sourcePoint" />
            <mxPoint x="-499" y="1850" as="targetPoint" />
          </mxGeometry>
        </mxCell>
        <mxCell id="NvE9XVo1AVocZ1LcWe5p-40" value="" style="endArrow=none;html=1;rounded=0;exitX=1;exitY=0.5;exitDx=0;exitDy=0;entryX=0;entryY=0.5;entryDx=0;entryDy=0;" parent="1" source="NvE9XVo1AVocZ1LcWe5p-35" target="sfWffZ3PeyV2pCnH3za--83" edge="1">
          <mxGeometry relative="1" as="geometry">
            <mxPoint x="138.5" y="1629" as="sourcePoint" />
            <mxPoint x="-340" y="1740" as="targetPoint" />
          </mxGeometry>
        </mxCell>
        <mxCell id="NvE9XVo1AVocZ1LcWe5p-41" value="" style="endArrow=none;html=1;rounded=0;exitX=1;exitY=0.5;exitDx=0;exitDy=0;entryX=0;entryY=0.5;entryDx=0;entryDy=0;" parent="1" source="NvE9XVo1AVocZ1LcWe5p-34" target="sfWffZ3PeyV2pCnH3za--83" edge="1">
          <mxGeometry relative="1" as="geometry">
            <mxPoint x="138.5" y="1629" as="sourcePoint" />
            <mxPoint x="-499" y="1850" as="targetPoint" />
          </mxGeometry>
        </mxCell>
        <mxCell id="NvE9XVo1AVocZ1LcWe5p-42" value="" style="endArrow=none;html=1;rounded=0;exitX=0.5;exitY=0;exitDx=0;exitDy=0;entryX=0;entryY=0.5;entryDx=0;entryDy=0;" parent="1" source="NvE9XVo1AVocZ1LcWe5p-33" target="sfWffZ3PeyV2pCnH3za--83" edge="1">
          <mxGeometry relative="1" as="geometry">
            <mxPoint x="138.5" y="1629" as="sourcePoint" />
            <mxPoint x="-499" y="1850" as="targetPoint" />
          </mxGeometry>
        </mxCell>
        <mxCell id="NvE9XVo1AVocZ1LcWe5p-43" value="supplier_phone" style="ellipse;whiteSpace=wrap;html=1;align=center;" parent="1" vertex="1">
          <mxGeometry x="-657" y="1650" width="100" height="40" as="geometry" />
        </mxCell>
        <mxCell id="NvE9XVo1AVocZ1LcWe5p-44" value="" style="endArrow=none;html=1;rounded=0;exitX=0;exitY=0.5;exitDx=0;exitDy=0;entryX=1;entryY=0.5;entryDx=0;entryDy=0;" parent="1" source="sfWffZ3PeyV2pCnH3za--83" target="NvE9XVo1AVocZ1LcWe5p-43" edge="1">
          <mxGeometry relative="1" as="geometry">
            <mxPoint x="-10" y="1710" as="sourcePoint" />
            <mxPoint x="150" y="1710" as="targetPoint" />
          </mxGeometry>
        </mxCell>
        <mxCell id="NvE9XVo1AVocZ1LcWe5p-51" style="edgeStyle=orthogonalEdgeStyle;rounded=0;orthogonalLoop=1;jettySize=auto;html=1;entryX=0.202;entryY=1.006;entryDx=0;entryDy=0;exitX=0;exitY=0.75;exitDx=0;exitDy=0;entryPerimeter=0;" parent="1" source="sfWffZ3PeyV2pCnH3za--115" target="sfWffZ3PeyV2pCnH3za--115" edge="1">
          <mxGeometry relative="1" as="geometry">
            <mxPoint x="254.11" y="1300.02" as="sourcePoint" />
            <mxPoint x="293.21000000000004" y="1314" as="targetPoint" />
            <Array as="points">
              <mxPoint x="269.11" y="1299" />
              <mxPoint x="228.11" y="1299" />
              <mxPoint x="228.11" y="1344" />
              <mxPoint x="293.11" y="1344" />
            </Array>
          </mxGeometry>
        </mxCell>
        <mxCell id="NvE9XVo1AVocZ1LcWe5p-52" value="" style="endArrow=none;html=1;rounded=0;entryX=0;entryY=0.5;entryDx=0;entryDy=0;exitX=1;exitY=0.5;exitDx=0;exitDy=0;" parent="1" source="sfWffZ3PeyV2pCnH3za--160" target="sfWffZ3PeyV2pCnH3za--115" edge="1">
          <mxGeometry relative="1" as="geometry">
            <mxPoint x="-125.89" y="1030" as="sourcePoint" />
            <mxPoint x="34.11" y="1030" as="targetPoint" />
          </mxGeometry>
        </mxCell>
        <mxCell id="NvE9XVo1AVocZ1LcWe5p-53" value="1" style="edgeLabel;html=1;align=center;verticalAlign=middle;resizable=0;points=[];" parent="NvE9XVo1AVocZ1LcWe5p-52" vertex="1" connectable="0">
          <mxGeometry x="0.4722" y="-1" relative="1" as="geometry">
            <mxPoint as="offset" />
          </mxGeometry>
        </mxCell>
        <mxCell id="NvE9XVo1AVocZ1LcWe5p-84" value="" style="endArrow=none;html=1;rounded=0;exitX=1;exitY=0.5;exitDx=0;exitDy=0;entryX=0;entryY=0.5;entryDx=0;entryDy=0;" parent="1" source="NvE9XVo1AVocZ1LcWe5p-86" target="sfWffZ3PeyV2pCnH3za--104" edge="1">
          <mxGeometry relative="1" as="geometry">
            <mxPoint x="220" y="1120" as="sourcePoint" />
            <mxPoint x="380" y="1120" as="targetPoint" />
          </mxGeometry>
        </mxCell>
        <mxCell id="NvE9XVo1AVocZ1LcWe5p-110" value="1" style="edgeLabel;html=1;align=center;verticalAlign=middle;resizable=0;points=[];" parent="NvE9XVo1AVocZ1LcWe5p-84" vertex="1" connectable="0">
          <mxGeometry x="0.9015" y="6" relative="1" as="geometry">
            <mxPoint x="-4" y="6" as="offset" />
          </mxGeometry>
        </mxCell>
        <mxCell id="NvE9XVo1AVocZ1LcWe5p-85" value="" style="endArrow=none;html=1;rounded=0;exitX=1;exitY=0.5;exitDx=0;exitDy=0;entryX=0;entryY=0.5;entryDx=0;entryDy=0;" parent="1" source="sfWffZ3PeyV2pCnH3za--50" target="NvE9XVo1AVocZ1LcWe5p-86" edge="1">
          <mxGeometry relative="1" as="geometry">
            <mxPoint x="140" y="960" as="sourcePoint" />
            <mxPoint x="780" y="960" as="targetPoint" />
          </mxGeometry>
        </mxCell>
        <mxCell id="NvE9XVo1AVocZ1LcWe5p-109" value="1" style="edgeLabel;html=1;align=center;verticalAlign=middle;resizable=0;points=[];" parent="NvE9XVo1AVocZ1LcWe5p-85" vertex="1" connectable="0">
          <mxGeometry x="-0.5142" y="2" relative="1" as="geometry">
            <mxPoint as="offset" />
          </mxGeometry>
        </mxCell>
        <mxCell id="NvE9XVo1AVocZ1LcWe5p-86" value="requires" style="shape=rhombus;perimeter=rhombusPerimeter;whiteSpace=wrap;html=1;align=center;" parent="1" vertex="1">
          <mxGeometry x="224.11" y="930" width="120" height="60" as="geometry" />
        </mxCell>
        <mxCell id="NvE9XVo1AVocZ1LcWe5p-87" value="ads" style="rounded=0;whiteSpace=wrap;html=1;" parent="1" vertex="1">
          <mxGeometry x="20.000000000000014" y="1620" width="120" height="60" as="geometry" />
        </mxCell>
        <mxCell id="NvE9XVo1AVocZ1LcWe5p-88" value="ad_id" style="ellipse;whiteSpace=wrap;html=1;align=center;fontStyle=4;" parent="1" vertex="1">
          <mxGeometry x="282" y="1550" width="100" height="40" as="geometry" />
        </mxCell>
        <mxCell id="NvE9XVo1AVocZ1LcWe5p-92" value="" style="endArrow=none;html=1;rounded=0;exitX=1;exitY=0.5;exitDx=0;exitDy=0;entryX=0;entryY=1;entryDx=0;entryDy=0;" parent="1" source="NvE9XVo1AVocZ1LcWe5p-87" target="NvE9XVo1AVocZ1LcWe5p-88" edge="1">
          <mxGeometry relative="1" as="geometry">
            <mxPoint x="256.61" y="1645" as="sourcePoint" />
            <mxPoint x="416.61" y="1645" as="targetPoint" />
          </mxGeometry>
        </mxCell>
        <mxCell id="NvE9XVo1AVocZ1LcWe5p-95" value="has" style="shape=rhombus;perimeter=rhombusPerimeter;whiteSpace=wrap;html=1;align=center;" parent="1" vertex="1">
          <mxGeometry x="20.000000000000014" y="1495" width="120" height="60" as="geometry" />
        </mxCell>
        <mxCell id="NvE9XVo1AVocZ1LcWe5p-96" value="" style="endArrow=none;html=1;rounded=0;exitX=0.5;exitY=1;exitDx=0;exitDy=0;entryX=0;entryY=0.5;entryDx=0;entryDy=0;" parent="1" source="sfWffZ3PeyV2pCnH3za--152" target="NvE9XVo1AVocZ1LcWe5p-95" edge="1">
          <mxGeometry relative="1" as="geometry">
            <mxPoint x="444" y="1380" as="sourcePoint" />
            <mxPoint x="444" y="1470" as="targetPoint" />
            <Array as="points">
              <mxPoint x="-198" y="1410" />
              <mxPoint x="-160" y="1410" />
              <mxPoint x="-80" y="1410" />
              <mxPoint x="-80" y="1525" />
            </Array>
          </mxGeometry>
        </mxCell>
        <mxCell id="NvE9XVo1AVocZ1LcWe5p-98" value="1" style="edgeLabel;html=1;align=center;verticalAlign=middle;resizable=0;points=[];" parent="NvE9XVo1AVocZ1LcWe5p-96" vertex="1" connectable="0">
          <mxGeometry x="0.1185" y="2" relative="1" as="geometry">
            <mxPoint x="-120" y="-127" as="offset" />
          </mxGeometry>
        </mxCell>
        <mxCell id="NvE9XVo1AVocZ1LcWe5p-97" value="" style="endArrow=none;html=1;rounded=0;exitX=0.5;exitY=1;exitDx=0;exitDy=0;entryX=0.5;entryY=0;entryDx=0;entryDy=0;" parent="1" source="NvE9XVo1AVocZ1LcWe5p-95" target="NvE9XVo1AVocZ1LcWe5p-87" edge="1">
          <mxGeometry relative="1" as="geometry">
            <mxPoint x="366.61" y="1685" as="sourcePoint" />
            <mxPoint x="526.61" y="1685" as="targetPoint" />
          </mxGeometry>
        </mxCell>
        <mxCell id="NvE9XVo1AVocZ1LcWe5p-99" value="N" style="edgeLabel;html=1;align=center;verticalAlign=middle;resizable=0;points=[];" parent="NvE9XVo1AVocZ1LcWe5p-97" vertex="1" connectable="0">
          <mxGeometry x="0.3833" y="1" relative="1" as="geometry">
            <mxPoint as="offset" />
          </mxGeometry>
        </mxCell>
        <mxCell id="NvE9XVo1AVocZ1LcWe5p-100" value="Product_ID" style="ellipse;whiteSpace=wrap;html=1;align=center;fillColor=#CCFFFF;" parent="1" vertex="1">
          <mxGeometry x="224.11" y="1770" width="100" height="40" as="geometry" />
        </mxCell>
        <mxCell id="NvE9XVo1AVocZ1LcWe5p-102" value="" style="endArrow=none;html=1;rounded=0;exitX=1;exitY=0.5;exitDx=0;exitDy=0;entryX=0;entryY=0.5;entryDx=0;entryDy=0;" parent="1" source="NvE9XVo1AVocZ1LcWe5p-87" target="NvE9XVo1AVocZ1LcWe5p-100" edge="1">
          <mxGeometry relative="1" as="geometry">
            <mxPoint x="366.61" y="1665" as="sourcePoint" />
            <mxPoint x="526.61" y="1665" as="targetPoint" />
          </mxGeometry>
        </mxCell>
        <mxCell id="NvE9XVo1AVocZ1LcWe5p-103" value="Product_ID" style="ellipse;whiteSpace=wrap;html=1;align=center;fillColor=#CCFFFF;" parent="1" vertex="1">
          <mxGeometry x="-360" y="1006" width="100" height="40" as="geometry" />
        </mxCell>
        <mxCell id="NvE9XVo1AVocZ1LcWe5p-104" value="" style="endArrow=none;html=1;rounded=0;entryX=0;entryY=0.5;entryDx=0;entryDy=0;exitX=1;exitY=0;exitDx=0;exitDy=0;" parent="1" source="NvE9XVo1AVocZ1LcWe5p-103" target="DJvpjTa6kjWMiN1_DL-c-10" edge="1">
          <mxGeometry relative="1" as="geometry">
            <mxPoint x="-560" y="1230" as="sourcePoint" />
            <mxPoint x="-400" y="1230" as="targetPoint" />
          </mxGeometry>
        </mxCell>
        <mxCell id="NvE9XVo1AVocZ1LcWe5p-105" value="Total_Price" style="ellipse;whiteSpace=wrap;html=1;align=center;fillColor=#FFFF99;" parent="1" vertex="1">
          <mxGeometry x="-475" y="850" width="100" height="40" as="geometry" />
        </mxCell>
        <mxCell id="NvE9XVo1AVocZ1LcWe5p-106" value="" style="endArrow=none;html=1;rounded=0;entryX=1;entryY=0.5;entryDx=0;entryDy=0;exitX=0;exitY=0.5;exitDx=0;exitDy=0;" parent="1" source="DJvpjTa6kjWMiN1_DL-c-10" target="NvE9XVo1AVocZ1LcWe5p-105" edge="1">
          <mxGeometry relative="1" as="geometry">
            <mxPoint x="-250" y="1120" as="sourcePoint" />
            <mxPoint x="130" y="1230" as="targetPoint" />
          </mxGeometry>
        </mxCell>
        <mxCell id="YKeoQCYXLqFoOjlAf17W-1" value="order_ID" style="ellipse;whiteSpace=wrap;html=1;fillColor=#FFFFFF;" parent="1" vertex="1">
          <mxGeometry x="-675.75" y="950" width="105.75" height="36" as="geometry" />
        </mxCell>
        <mxCell id="YKeoQCYXLqFoOjlAf17W-2" value="Total_Quantity" style="ellipse;whiteSpace=wrap;html=1;align=center;fillColor=#FFFF99;" parent="1" vertex="1">
          <mxGeometry x="-399" y="810" width="100" height="40" as="geometry" />
        </mxCell>
        <mxCell id="YKeoQCYXLqFoOjlAf17W-3" value="" style="endArrow=none;html=1;rounded=0;entryX=1;entryY=0.5;entryDx=0;entryDy=0;exitX=0;exitY=0.5;exitDx=0;exitDy=0;" parent="1" source="DJvpjTa6kjWMiN1_DL-c-10" target="YKeoQCYXLqFoOjlAf17W-2" edge="1">
          <mxGeometry relative="1" as="geometry">
            <mxPoint x="-196" y="920" as="sourcePoint" />
            <mxPoint x="-598" y="869" as="targetPoint" />
          </mxGeometry>
        </mxCell>
        <mxCell id="NvE9XVo1AVocZ1LcWe5p-115" value="is child of" style="shape=rhombus;perimeter=rhombusPerimeter;whiteSpace=wrap;html=1;align=center;" parent="1" vertex="1">
          <mxGeometry x="171.11" y="1320" width="113" height="49" as="geometry" />
        </mxCell>
        <mxCell id="NvE9XVo1AVocZ1LcWe5p-123" value="ad_status" style="ellipse;whiteSpace=wrap;html=1;align=center;" parent="1" vertex="1">
          <mxGeometry x="224.11" y="1720" width="100" height="40" as="geometry" />
        </mxCell>
        <mxCell id="NvE9XVo1AVocZ1LcWe5p-124" value="" style="endArrow=none;html=1;rounded=0;entryX=0;entryY=0.5;entryDx=0;entryDy=0;exitX=1;exitY=0.5;exitDx=0;exitDy=0;" parent="1" source="NvE9XVo1AVocZ1LcWe5p-87" target="NvE9XVo1AVocZ1LcWe5p-123" edge="1">
          <mxGeometry relative="1" as="geometry">
            <mxPoint x="70" y="1570" as="sourcePoint" />
            <mxPoint x="230" y="1570" as="targetPoint" />
          </mxGeometry>
        </mxCell>
        <mxCell id="YgPgxzTx9ocBrH8oUNNP-1" value="parent_category_id" style="ellipse;whiteSpace=wrap;html=1;align=center;" parent="1" vertex="1">
          <mxGeometry x="420" y="1365" width="125" height="40" as="geometry" />
        </mxCell>
        <mxCell id="YgPgxzTx9ocBrH8oUNNP-2" value="" style="endArrow=none;html=1;rounded=0;exitX=1;exitY=0.5;exitDx=0;exitDy=0;entryX=0;entryY=0.5;entryDx=0;entryDy=0;" parent="1" source="sfWffZ3PeyV2pCnH3za--115" target="YgPgxzTx9ocBrH8oUNNP-1" edge="1">
          <mxGeometry relative="1" as="geometry">
            <mxPoint x="560" y="1330" as="sourcePoint" />
            <mxPoint x="720" y="1330" as="targetPoint" />
          </mxGeometry>
        </mxCell>
        <mxCell id="YgPgxzTx9ocBrH8oUNNP-8" value="order_detail_id" style="ellipse;whiteSpace=wrap;html=1;align=center;" parent="1" vertex="1">
          <mxGeometry x="-681.75" y="822" width="100" height="40" as="geometry" />
        </mxCell>
        <mxCell id="YgPgxzTx9ocBrH8oUNNP-9" value="sub_quantity" style="ellipse;whiteSpace=wrap;html=1;align=center;" parent="1" vertex="1">
          <mxGeometry x="-715.75" y="865" width="100" height="40" as="geometry" />
        </mxCell>
        <mxCell id="YgPgxzTx9ocBrH8oUNNP-12" value="" style="endArrow=none;html=1;rounded=0;exitX=1;exitY=0.5;exitDx=0;exitDy=0;entryX=0;entryY=0;entryDx=0;entryDy=0;" parent="1" source="YgPgxzTx9ocBrH8oUNNP-8" target="XtCPLWf1f0sHJ1Zrk5SG-67" edge="1">
          <mxGeometry relative="1" as="geometry">
            <mxPoint x="-330" y="930" as="sourcePoint" />
            <mxPoint x="-170" y="930" as="targetPoint" />
          </mxGeometry>
        </mxCell>
        <mxCell id="YgPgxzTx9ocBrH8oUNNP-13" value="" style="endArrow=none;html=1;rounded=0;exitX=1;exitY=0.5;exitDx=0;exitDy=0;entryX=0;entryY=0;entryDx=0;entryDy=0;" parent="1" source="YgPgxzTx9ocBrH8oUNNP-9" target="XtCPLWf1f0sHJ1Zrk5SG-67" edge="1">
          <mxGeometry relative="1" as="geometry">
            <mxPoint x="-330" y="930" as="sourcePoint" />
            <mxPoint x="-170" y="930" as="targetPoint" />
          </mxGeometry>
        </mxCell>
        <mxCell id="YgPgxzTx9ocBrH8oUNNP-14" value="delivery_end_date" style="ellipse;whiteSpace=wrap;html=1;align=center;" parent="1" vertex="1">
          <mxGeometry x="470" y="810" width="110" height="40" as="geometry" />
        </mxCell>
        <mxCell id="YgPgxzTx9ocBrH8oUNNP-15" value="" style="endArrow=none;html=1;rounded=0;entryX=0.5;entryY=0;entryDx=0;entryDy=0;exitX=0.5;exitY=1;exitDx=0;exitDy=0;" parent="1" source="YgPgxzTx9ocBrH8oUNNP-14" target="sfWffZ3PeyV2pCnH3za--104" edge="1">
          <mxGeometry relative="1" as="geometry">
            <mxPoint x="420" y="785" as="sourcePoint" />
            <mxPoint x="580" y="785" as="targetPoint" />
          </mxGeometry>
        </mxCell>
        <mxCell id="YgPgxzTx9ocBrH8oUNNP-16" value="ad_start_date" style="ellipse;whiteSpace=wrap;html=1;align=center;" parent="1" vertex="1">
          <mxGeometry x="320" y="1620" width="100" height="40" as="geometry" />
        </mxCell>
        <mxCell id="YgPgxzTx9ocBrH8oUNNP-17" value="ad_end_date" style="ellipse;whiteSpace=wrap;html=1;align=center;" parent="1" vertex="1">
          <mxGeometry x="324.11" y="1690" width="100" height="40" as="geometry" />
        </mxCell>
        <mxCell id="YgPgxzTx9ocBrH8oUNNP-18" value="" style="endArrow=none;html=1;rounded=0;exitX=1;exitY=0.5;exitDx=0;exitDy=0;entryX=0;entryY=0.5;entryDx=0;entryDy=0;" parent="1" source="NvE9XVo1AVocZ1LcWe5p-87" target="YgPgxzTx9ocBrH8oUNNP-16" edge="1">
          <mxGeometry relative="1" as="geometry">
            <mxPoint x="40" y="1550" as="sourcePoint" />
            <mxPoint x="200" y="1550" as="targetPoint" />
          </mxGeometry>
        </mxCell>
        <mxCell id="YgPgxzTx9ocBrH8oUNNP-19" value="" style="endArrow=none;html=1;rounded=0;exitX=1;exitY=0.5;exitDx=0;exitDy=0;entryX=0;entryY=0.5;entryDx=0;entryDy=0;" parent="1" source="NvE9XVo1AVocZ1LcWe5p-87" target="YgPgxzTx9ocBrH8oUNNP-17" edge="1">
          <mxGeometry relative="1" as="geometry">
            <mxPoint x="40" y="1550" as="sourcePoint" />
            <mxPoint x="200" y="1550" as="targetPoint" />
          </mxGeometry>
        </mxCell>
        <mxCell id="KUQNNzebvAZa5rl9UDWi-1" value="Changes:&lt;div&gt;1. Removed ad_name from ads table because we are not using ad_name for any analysis&lt;/div&gt;" style="shape=note;whiteSpace=wrap;html=1;backgroundOutline=1;fontColor=#000000;darkOpacity=0.05;fillColor=#FFF9B2;strokeColor=none;fillStyle=solid;direction=west;gradientDirection=north;gradientColor=#FFF2A1;shadow=1;size=20;pointerEvents=1;movable=1;resizable=1;rotatable=1;deletable=1;editable=1;locked=0;connectable=1;" vertex="1" parent="1">
          <mxGeometry x="540" y="1430" width="340" height="500" as="geometry" />
        </mxCell>
      </root>
    </mxGraphModel>
  </diagram>
</mxfile>
